<svg width="50" height="50" viewBox="0 0 50 50" fill="none" xmlns="http://www.w3.org/2000/svg">
<circle cx="25" cy="25" r="25" fill="#AE8BDB"/>
<path d="M27.0714 14.875C27.0714 13.8379 26.1138 13 24.9286 13C23.7433 13 22.7857 13.8379 22.7857 14.875V23.3125H13.1429C11.9576 23.3125 11 24.1504 11 25.1875C11 26.2246 11.9576 27.0625 13.1429 27.0625H22.7857V35.5C22.7857 36.5371 23.7433 37.375 24.9286 37.375C26.1138 37.375 27.0714 36.5371 27.0714 35.5V27.0625H36.7143C37.8996 27.0625 38.8571 26.2246 38.8571 25.1875C38.8571 24.1504 37.8996 23.3125 36.7143 23.3125H27.0714V14.875Z" fill="white"/>
</svg>
